<svg version="1.1" id="Layer_1" xmlns="http://www.w3.org/2000/svg" xmlns:xlink="http://www.w3.org/1999/xlink" x="0px" y="0px" viewBox="0 0 576 384" enable-background="new 0 0 576 384" xml:space="preserve">
<path fill="#ffffff" opacity="1.000000" stroke="none" 
	d="
M184.268616,68.744492 
	C194.898514,71.239815 204.245041,76.101028 213.917618,80.068909 
	C248.115967,94.097725 282.209930,108.381294 316.318359,122.628380 
	C319.187500,123.826813 322.091278,124.046432 325.108246,124.037247 
	C332.606049,124.014420 340.107819,123.914047 347.600861,124.112778 
	C353.904327,124.279953 356.703308,127.097748 357.025909,133.369949 
	C357.222504,137.191498 357.223206,141.042023 357.002930,144.861710 
	C356.671997,150.601074 353.834229,153.280121 348.079041,153.336578 
	C338.749023,153.428116 329.413818,153.520340 320.088257,153.299316 
	C316.076477,153.204239 314.885468,154.749161 314.950562,158.570435 
	C315.129395,169.064621 314.997101,179.563828 315.041107,190.060837 
	C315.049316,192.019485 314.928955,193.962433 316.438873,195.697952 
	C323.769257,204.123734 323.622681,207.944534 315.670105,216.147552 
	C317.148468,218.779449 318.587891,221.491776 318.374084,224.867111 
	C318.159546,228.254257 321.060730,227.626541 323.090698,227.637466 
	C333.754303,227.694916 344.418732,227.616806 355.081970,227.702133 
	C357.391205,227.720596 360.393768,226.786179 361.031555,230.515244 
	C361.534149,233.453827 360.529388,235.269089 357.383148,235.861542 
	C355.635498,236.190643 355.273590,237.791138 355.279572,239.401428 
	C355.290710,242.400406 355.318390,245.399597 355.296234,248.398361 
	C355.281830,250.350525 356.005188,251.557037 358.120880,251.734436 
	C361.198303,251.992477 361.151489,254.286728 361.096741,256.525909 
	C361.025177,259.453949 359.047974,260.030457 356.663971,260.044647 
	C352.498627,260.069397 348.333099,260.080688 344.167664,260.082245 
	C318.341034,260.091888 292.514404,260.113037 266.687775,260.090881 
	C261.464447,260.086395 260.079834,258.688080 260.812103,254.589172 
	C261.030273,253.367722 261.366211,252.057175 262.701904,251.982956 
	C267.319763,251.726364 267.007996,248.369598 266.606049,245.468613 
	C266.103851,241.844162 269.196716,236.758072 262.738922,235.215668 
	C260.014069,234.564865 260.768677,232.082947 260.942291,230.192520 
	C261.177124,227.635788 263.260437,227.716110 265.097443,227.710144 
	C275.261383,227.677094 285.425964,227.618423 295.589203,227.703049 
	C300.222778,227.741623 304.505005,227.890930 303.910889,221.129547 
	C303.774963,219.582611 305.331055,217.887009 306.135162,216.203812 
	C305.678162,214.671326 304.117676,214.121078 303.130402,213.042648 
	C298.999207,208.529861 298.680298,201.790176 303.237274,197.784607 
	C306.288269,195.102844 306.921783,192.277328 306.867188,188.610901 
	C306.720795,178.782211 306.637665,168.945709 306.884674,159.121246 
	C306.991119,154.888596 305.867920,153.259384 301.317627,153.289932 
	C273.992584,153.473404 246.665253,153.451431 219.339813,153.297745 
	C214.999680,153.273346 213.726715,154.708389 214.455826,158.874084 
	C218.898041,184.254211 223.241913,209.651596 227.603836,235.045746 
	C231.177032,255.848206 234.859924,276.633362 238.197052,297.473724 
	C239.000595,302.491913 240.370117,305.666504 246.217972,304.683624 
	C250.029068,304.043091 251.462723,305.738342 251.458191,309.730988 
	C251.446640,319.881714 251.624481,319.887573 241.604767,319.886963 
	C202.948059,319.884613 164.291321,319.897675 125.634727,319.829132 
	C123.120216,319.824677 119.580612,320.996002 118.466782,317.938934 
	C117.110580,314.216644 117.252892,309.971039 118.546181,306.161499 
	C119.336197,303.834412 122.085915,304.500763 123.901787,304.747284 
	C129.039490,305.444885 130.885712,303.086304 131.688538,298.288666 
	C136.490036,269.595795 141.531952,240.943222 146.457855,212.271072 
	C149.497147,194.580307 152.420654,176.869492 155.516357,159.188736 
	C156.270126,154.883667 155.105057,153.190445 150.448059,153.263092 
	C140.926086,153.411606 139.162811,151.056427 138.720459,141.462326 
	C138.374603,133.961319 140.298859,127.944626 144.984482,121.764252 
	C157.354187,105.448486 168.814514,88.443001 180.617294,71.698288 
	C181.489227,70.461288 182.253616,69.168579 184.268616,68.744492 
M193.349915,263.205627 
	C187.875412,258.554108 182.638000,258.868561 176.689667,262.898224 
	C170.928360,266.801208 164.679291,270.139191 158.294159,272.921448 
	C152.261261,275.550232 149.220032,279.393372 148.882401,286.023529 
	C148.639099,290.800964 147.390411,295.531921 146.521118,300.270996 
	C145.993790,303.145752 146.744522,304.689819 150.019562,304.680786 
	C173.337173,304.616547 196.655029,304.617279 219.972748,304.646149 
	C222.752579,304.649597 224.035507,303.596832 223.533524,300.734894 
	C222.356125,294.022308 221.127884,287.317444 220.065979,280.586456 
	C219.689392,278.199310 218.492615,276.780823 216.405548,275.674164 
	C208.904755,271.697021 201.474533,267.586731 193.349915,263.205627 
M189.348831,108.779160 
	C192.611404,112.456459 196.831192,110.206230 200.576706,110.413155 
	C206.811111,110.757584 209.899658,112.816742 210.049637,118.833351 
	C210.158844,123.213715 212.016510,124.083549 215.847427,124.057678 
	C233.345398,123.939468 250.844666,124.017273 268.343475,124.022240 
	C277.763489,124.024910 287.183502,124.022720 296.603516,124.022720 
	C296.661407,123.764473 296.719299,123.506226 296.777191,123.247978 
	C261.268311,108.532814 225.759384,93.817642 189.209488,78.671082 
	C189.209488,89.351181 189.209488,98.637756 189.348831,108.779160 
M204.832153,235.457748 
	C205.924088,234.562973 207.757156,234.518005 208.134460,232.230087 
	C201.228683,227.662659 194.192261,223.007523 187.154022,218.355118 
	C185.983353,217.581299 184.732712,217.125900 183.435272,217.972549 
	C176.130447,222.739395 168.843552,227.533722 161.088638,232.621735 
	C167.715546,237.782227 174.834198,240.289902 181.094376,244.243195 
	C183.828323,245.969696 186.235016,245.837143 188.970825,244.231995 
	C193.980026,241.292969 199.128036,238.590576 204.832153,235.457748 
M176.713455,182.227295 
	C173.486832,185.216110 169.523270,187.423065 166.728088,191.252762 
	C172.109726,194.844070 177.212723,198.257187 182.325638,201.655411 
	C183.449097,202.402115 184.769897,203.300369 186.026260,202.512024 
	C191.842773,198.862183 197.567169,195.065552 203.854935,190.976608 
	C199.630890,187.550140 196.271042,184.852325 192.941147,182.118027 
	C185.004059,175.600586 185.009766,175.593628 176.713455,182.227295 
M174.730667,94.194862 
	C170.597702,100.024376 166.464737,105.853882 161.506729,112.847122 
	C166.658478,109.486641 171.184158,110.966949 175.537384,110.586838 
	C177.863892,110.383698 180.629150,110.577255 180.709351,107.275352 
	C180.868958,100.705612 180.756592,94.129265 180.756592,86.914818 
	C177.849976,89.096466 176.757324,91.568024 174.730667,94.194862 
M198.919785,250.929321 
	C197.456085,251.607529 196.500397,252.465790 198.495178,253.588791 
	C204.049347,256.715698 209.649323,259.761261 215.897141,263.206116 
	C216.096054,255.911423 215.394592,249.764603 212.999039,243.341507 
	C208.149887,245.936737 203.804092,248.262573 198.919785,250.929321 
M168.079971,249.321365 
	C164.461655,247.402100 160.843323,245.482834 156.794769,243.335358 
	C154.758545,249.912796 153.882568,255.940811 153.589920,263.003326 
	C160.775543,259.747284 166.879501,256.508881 173.205750,252.473907 
	C171.193588,251.233185 169.933395,250.456116 168.079971,249.321365 
M306.690674,142.891129 
	C306.725922,140.910919 306.653809,138.921631 306.820343,136.952530 
	C307.105530,133.580765 305.792786,131.970352 302.293243,132.316727 
	C300.985107,132.446182 299.652985,132.313644 298.333130,132.349075 
	C296.515717,132.397858 294.253540,132.233917 294.277344,134.794312 
	C294.309753,138.281250 292.265869,143.067551 295.652740,144.886642 
	C298.571198,146.454132 303.248871,147.229279 306.690674,142.891129 
M252.318787,134.140060 
	C252.242569,136.772644 252.113968,139.405182 252.112228,142.037811 
	C252.111374,143.354446 252.291077,144.605072 253.785004,145.314392 
	C259.656708,148.102295 264.807922,144.929657 264.782501,138.473160 
	C264.777985,137.318939 264.773254,136.163086 264.710602,135.011154 
	C264.628479,133.502563 263.902649,132.388550 262.304810,132.452087 
	C259.085114,132.580170 255.730469,131.449402 252.318787,134.140060 
M273.158936,137.626373 
	C273.508484,140.143158 271.987213,143.492386 274.669403,144.955978 
	C277.396667,146.444183 280.926758,146.117752 283.887543,145.226517 
	C286.831757,144.340210 285.404144,141.288254 285.729584,139.145493 
	C285.827789,138.498566 285.697144,137.820145 285.751678,137.162796 
	C286.012939,134.013779 285.110016,131.752411 281.431824,132.368454 
	C278.257690,132.900040 273.060150,129.933014 273.158936,137.626373 
M241.754471,145.383575 
	C244.705704,144.135696 243.716003,141.478836 243.770172,139.329010 
	C243.927689,133.075500 238.251587,129.733963 232.727280,132.690521 
	C231.725983,133.226425 231.449249,134.062012 231.227890,135.070724 
	C229.435379,143.239182 231.289536,145.631714 239.432648,145.581070 
	C239.928879,145.577972 240.424957,145.546021 241.754471,145.383575 
M315.451202,144.082764 
	C323.452881,148.408569 327.949249,145.933929 327.757996,137.306915 
	C327.739685,136.482956 327.716827,135.658020 327.657745,134.836288 
	C327.544281,133.258270 326.592377,132.666611 325.102081,132.359879 
	C316.969391,130.685974 314.860413,132.330994 315.032013,140.387970 
	C315.053009,141.375473 315.164398,142.361084 315.451202,144.082764 
M336.135986,140.333130 
	C336.385071,142.191849 335.430664,144.920212 338.134460,145.315735 
	C341.161316,145.758530 344.543945,146.615417 347.320923,144.570557 
	C350.093445,142.528976 349.134216,133.814560 346.194489,132.632095 
	C340.045593,130.158798 336.169678,132.780563 336.135986,140.333130 
M208.630417,213.445648 
	C207.461899,210.323196 208.514252,206.492432 205.725494,203.674225 
	C202.409592,205.792297 198.689941,206.951157 196.443512,210.675247 
	C200.319351,213.815353 203.969574,216.803574 208.589706,218.348694 
	C209.426590,216.784409 208.669815,215.491943 208.630417,213.445648 
M169.968323,213.521393 
	C171.133850,212.447174 172.965179,211.987000 173.284729,209.620056 
	C170.466751,207.438644 167.596619,205.088776 163.327316,203.728165 
	C162.078186,208.859604 161.076584,213.653168 160.879486,219.321442 
	C164.125076,217.268616 166.761032,215.601395 169.968323,213.521393 
M180.177246,153.346680 
	C178.922546,153.505661 177.524628,152.917282 176.206818,154.248627 
	C178.704071,157.338989 181.626526,161.021378 185.337906,160.839096 
	C188.311935,160.693054 191.526001,157.661484 193.457642,153.358536 
	C188.866287,153.358536 184.938736,153.358536 180.177246,153.346680 
M217.853363,145.387177 
	C220.072418,145.661041 222.401489,145.933014 222.619308,142.782471 
	C222.800552,140.160767 222.719162,137.516281 222.658752,134.884064 
	C222.615402,132.994949 221.365646,132.409576 219.663589,132.388596 
	C217.837982,132.366104 216.190140,132.753754 216.236938,134.948837 
	C216.308853,138.323685 215.159119,141.832260 217.853363,145.387177 
M198.004333,172.293640 
	C199.042404,172.874161 199.725967,174.429199 201.566742,173.408035 
	C201.049988,170.514618 201.343552,167.386902 199.068848,164.510239 
	C197.236343,165.766373 194.973145,166.115845 194.481567,168.588348 
	C195.001602,170.221405 196.463608,170.842117 198.004333,172.293640 
M172.485382,165.318710 
	C171.301437,164.625244 170.068207,164.625702 169.745056,166.078430 
	C169.195999,168.546661 168.055191,170.986511 168.620865,173.715088 
	C175.806091,170.783539 176.644119,169.193329 172.485382,165.318710 
M155.086914,122.101562 
	C154.894943,124.341934 156.531860,123.895142 157.741470,123.785965 
	C159.142761,123.659485 159.619247,122.582634 159.684921,121.300667 
	C159.782257,119.401001 159.868866,117.500786 159.980804,115.168190 
	C158.273056,117.531647 156.828156,119.531319 155.086914,122.101562 
z"/>
<path fill="#ffffff" opacity="1.000000" stroke="none" 
	d="
M429.011536,179.035599 
	C439.007263,179.047867 448.507660,179.183014 458.002991,179.020386 
	C462.293274,178.946884 463.932404,180.654312 463.927734,184.910995 
	C463.880493,227.903381 463.877258,270.896057 464.026794,313.888092 
	C464.046661,319.592621 460.668365,319.896545 456.530243,319.894348 
	C430.368042,319.880585 404.205719,319.945587 378.043732,319.871552 
	C362.051208,319.826294 346.058990,319.467133 330.067108,319.496704 
	C325.723633,319.504730 324.372559,318.142242 324.462921,313.687012 
	C324.736359,300.211823 324.591309,286.724670 324.389862,273.245453 
	C324.335144,269.583954 325.948975,268.643890 329.191864,268.662750 
	C340.689423,268.729706 352.189606,268.552856 363.684662,268.732788 
	C367.569763,268.793579 368.993744,267.510956 368.930878,263.566864 
	C368.752930,252.405151 369.034088,241.235764 368.829407,230.074982 
	C368.740845,225.245087 370.678375,223.634781 375.362701,223.723206 
	C386.523438,223.933868 397.692657,223.675522 408.854675,223.847992 
	C412.549377,223.905075 413.824524,222.637772 413.768860,218.937088 
	C413.600891,207.775009 413.924103,196.603439 413.640228,185.446152 
	C413.516388,180.578217 415.313660,178.718018 420.017853,179.020889 
	C422.838623,179.202484 425.681305,179.043106 429.011536,179.035599 
M454.567139,237.204666 
	C450.768341,241.082733 446.969513,244.960800 443.814423,248.181732 
	C449.012329,253.467728 453.768707,258.304718 458.407593,263.022247 
	C458.407593,253.753815 458.407593,244.192596 458.407593,233.949783 
	C456.974487,235.136292 456.007751,235.936691 454.567139,237.204666 
M426.655426,184.337845 
	C425.892670,184.486038 424.958038,184.096146 423.852478,186.072052 
	C428.095825,190.006149 432.564331,194.156372 437.043335,198.295212 
	C437.935730,199.119797 439.010864,199.897827 440.099854,198.844910 
	C444.758362,194.340576 449.340424,189.757141 454.839020,184.324585 
	C444.659515,184.324585 436.038757,184.324585 426.655426,184.337845 
M429.042053,313.637421 
	C437.015472,313.637421 444.988892,313.637421 452.962341,313.637421 
	C453.236023,313.019897 453.509705,312.402344 453.783386,311.784821 
	C449.467926,307.734314 445.135803,303.701355 440.846741,299.623138 
	C439.481079,298.324646 438.316833,298.453979 436.986237,299.687134 
	C432.529266,303.817902 428.024200,307.896790 423.487793,312.040985 
	C425.580017,314.083252 426.982086,313.406128 429.042053,313.637421 
M406.658813,302.837524 
	C408.762573,304.528168 410.138580,307.157654 413.381165,308.304779 
	C413.381165,298.445007 413.381165,289.088623 413.381165,278.933075 
	C407.905579,284.035889 402.855133,288.639404 397.333008,295.397186 
	C400.412628,297.825592 403.281494,300.087769 406.658813,302.837524 
M458.542664,306.293365 
	C458.542664,297.351105 458.542664,288.408813 458.542664,279.466553 
	C458.160706,279.194855 457.778717,278.923157 457.396759,278.651428 
	C453.119720,283.206696 448.855560,287.774170 444.558105,292.310089 
	C443.196716,293.747009 443.605438,294.948608 444.841125,296.167755 
	C448.391876,299.670990 451.896027,303.222290 455.492889,306.677246 
	C456.281036,307.434296 457.256897,309.154175 458.542664,306.293365 
M402.758087,244.229797 
	C401.359894,245.810425 399.355713,246.907654 398.642853,249.550751 
	C403.084503,254.221008 407.465637,259.147491 413.334961,263.696472 
	C413.334961,253.160156 413.334961,243.846573 413.334961,233.001801 
	C409.359589,237.240768 406.311249,240.491257 402.758087,244.229797 
M345.598511,313.656738 
	C351.453094,313.411194 357.365509,314.120148 363.730865,312.297791 
	C359.881775,307.693573 355.555908,303.841919 351.350891,299.862579 
	C349.589935,298.196106 348.261902,298.517700 346.691895,300.070618 
	C342.457581,304.258850 338.146057,308.369019 333.865143,312.510162 
	C334.022736,312.893585 334.180298,313.276978 334.337891,313.660400 
	C337.773224,313.660400 341.208588,313.660400 345.598511,313.656738 
M451.860352,268.536072 
	C453.391968,267.906738 452.736725,266.990936 452.048065,266.272064 
	C447.836182,261.875793 443.580963,257.520996 439.754852,253.579575 
	C434.498657,258.733978 429.830139,263.312073 424.432404,268.605255 
	C433.736053,268.605255 442.450989,268.605255 451.860352,268.536072 
M342.408905,296.999481 
	C343.543701,295.660217 345.509460,294.455017 343.488800,292.440216 
	C339.168671,288.132507 335.230713,283.411713 329.719574,279.220581 
	C329.719574,289.447968 329.719574,298.960571 329.719574,308.473206 
	C330.124969,308.815948 330.530396,309.158722 330.935791,309.501495 
	C334.598389,305.498260 338.260956,301.495056 342.408905,296.999481 
M456.584381,190.424591 
	C452.055450,194.781555 447.526520,199.138519 443.475494,203.035736 
	C448.716736,208.429108 453.336945,213.183426 458.506256,218.502792 
	C458.506256,208.999481 458.519196,200.043503 458.481323,191.087753 
	C458.478333,190.384140 457.972351,189.893250 456.584381,190.424591 
M374.267151,285.831238 
	C374.267151,293.370758 374.267151,300.910248 374.267151,309.744324 
	C380.083252,303.978455 385.243164,299.496582 388.882416,294.880188 
	C384.072235,289.637970 379.670502,284.840881 374.629974,279.347626 
	C374.472290,281.797607 374.370636,283.377075 374.267151,285.831238 
M382.210052,309.524994 
	C381.411499,310.648071 379.633423,311.164093 380.010773,313.257812 
	C389.406342,313.257812 398.773621,313.257812 408.140900,313.257812 
	C408.408508,312.865234 408.676117,312.472626 408.943726,312.080048 
	C404.537842,307.882660 400.139557,303.677246 395.722168,299.492004 
	C394.019287,297.878632 392.715912,298.958374 391.473602,300.207306 
	C388.541962,303.154541 385.615570,306.106995 382.210052,309.524994 
M393.090363,254.024597 
	C388.710907,258.634155 384.331451,263.243683 379.529663,268.297760 
	C389.257599,268.297760 398.450745,268.297760 408.918091,268.297760 
	C403.509796,262.713287 399.528320,257.322144 393.090363,254.024597 
M442.448853,229.256836 
	C436.615692,229.256836 430.782532,229.256836 423.884277,229.256836 
	C429.582092,234.900681 434.218109,239.492767 438.561340,243.794846 
	C443.250336,239.193771 447.971710,234.560944 453.377533,229.256516 
	C449.599243,229.256516 446.511566,229.256516 442.448853,229.256836 
M402.208221,229.251343 
	C394.862427,229.251343 387.516632,229.251343 378.982300,229.251343 
	C384.794769,234.785294 389.499725,239.264801 394.588409,244.109619 
	C399.030334,239.435593 403.643585,234.581329 408.294464,229.687454 
	C406.686066,228.831619 404.844208,229.477707 402.208221,229.251343 
M386.282562,252.914017 
	C387.306702,251.679825 389.020477,250.918442 389.038055,248.592834 
	C384.793762,243.929108 380.389587,239.111084 374.587921,234.682373 
	C374.587921,244.778107 374.587921,254.109375 374.587921,263.440643 
	C375.042236,263.789520 375.496552,264.138367 375.950867,264.487244 
	C379.233032,260.790649 382.515198,257.094055 386.282562,252.914017 
M432.709351,214.218811 
	C429.851807,217.100189 426.994293,219.981583 423.618896,223.385132 
	C433.993500,223.385132 443.321747,223.385132 453.668091,223.385132 
	C448.129425,218.167847 443.344971,213.660980 438.395416,208.998627 
	C436.389893,209.880341 435.057465,212.102356 432.709351,214.218811 
M419.082886,203.509262 
	C419.082886,208.423264 419.082886,213.337250 419.082886,218.884140 
	C424.330017,213.346100 428.922272,208.499268 432.490723,204.732971 
	C428.353088,200.316452 423.844543,195.504028 419.082428,190.420959 
	C419.082428,194.572586 419.082428,198.546814 419.082886,203.509262 
M419.110657,252.445648 
	C419.110657,255.860794 419.110657,259.275940 419.110657,263.956238 
	C425.144043,259.402710 429.006104,254.691864 433.211853,250.362640 
	C434.012054,249.538986 433.691589,248.388870 432.958618,247.637009 
	C428.637299,243.204269 424.262146,238.823990 419.110107,233.623550 
	C419.110107,240.527573 419.110107,245.997131 419.110657,252.445648 
M368.882812,299.373566 
	C368.882812,293.010162 368.882812,286.646790 368.882812,280.283386 
	C368.222809,279.974548 367.562775,279.665741 366.902771,279.356903 
	C363.121674,283.541718 359.340210,287.726135 355.559906,291.911652 
	C354.601532,292.972748 353.802246,294.325867 354.937836,295.467041 
	C359.175293,299.725342 362.761078,304.717346 368.096100,308.201477 
	C369.397156,305.274353 368.657135,302.754517 368.882812,299.373566 
M445.982330,283.479340 
	C448.331360,281.044464 450.680389,278.609558 453.673309,275.507263 
	C443.456757,275.507263 434.437134,275.507263 424.374298,275.507263 
	C429.977966,280.478577 434.835419,284.787872 440.838959,290.113953 
	C441.875793,288.758209 443.693909,286.380829 445.982330,283.479340 
M426.676361,302.181793 
	C428.568390,300.325714 430.481720,298.490662 432.344147,296.605316 
	C433.377625,295.559082 434.860779,294.372009 433.362640,292.841125 
	C429.052551,288.436859 424.598938,284.173096 419.640076,279.302490 
	C419.640076,289.613556 419.640076,298.700562 419.640076,308.761047 
	C422.344574,306.224274 424.252014,304.435120 426.676361,302.181793 
M356.591522,283.102814 
	C358.811249,280.811005 361.452148,278.845886 362.960968,275.555878 
	C353.416473,275.555878 344.416046,275.555878 335.036133,275.555878 
	C336.866364,279.068451 339.616730,281.017975 341.858887,283.386902 
	C348.777283,290.696564 348.813904,290.661896 356.591522,283.102814 
M388.946991,285.544739 
	C391.004425,286.810974 392.285522,291.109131 395.199921,288.831238 
	C399.898468,285.158844 403.850891,280.531799 408.905762,275.528870 
	C398.452759,275.528870 389.456451,275.528870 378.943359,275.528870 
	C382.731934,279.320557 385.590881,282.181854 388.946991,285.544739 
z"/>
<path fill="#ffffff" opacity="1.000000" stroke="none" 
	d="
M281.597107,274.552765 
	C275.299103,283.017853 267.357971,289.611755 259.955627,298.140839 
	C267.364227,297.043427 267.781494,301.043610 267.393524,305.837402 
	C267.193085,308.314056 267.355072,310.818878 267.324860,313.310638 
	C267.282928,316.768768 265.860260,319.116455 262.117554,319.285034 
	C258.395935,319.452637 256.543793,317.149628 256.246124,313.836853 
	C255.890533,309.879059 256.050354,305.874451 255.999008,301.890015 
	C255.979752,300.395020 256.257050,298.843597 255.951920,297.413300 
	C253.716644,286.934845 259.778595,280.308685 267.053314,274.763916 
	C271.313446,271.516907 276.655945,272.173096 281.597107,274.552765 
z"/>
<path fill="#ffffff" opacity="1.000000" stroke="none" 
	d="
M310.646973,311.796478 
	C310.205627,307.610718 312.240845,303.098083 309.325531,300.322754 
	C306.520203,297.652161 301.910706,300.290375 298.808228,299.059937 
	C306.444458,291.601837 314.225281,284.002502 321.786133,276.618042 
	C324.507812,284.596405 321.417297,291.756531 313.367462,297.109467 
	C314.072754,297.748352 314.270111,298.087463 314.511963,298.122864 
	C321.331085,299.120605 321.332855,299.115601 321.363678,306.124298 
	C321.372467,308.118317 321.359833,310.112579 321.380707,312.106445 
	C321.418427,315.705658 320.821136,319.065796 316.355530,319.238800 
	C311.685669,319.419739 310.567993,316.216675 310.646973,311.796478 
z"/>
<path fill="#ffffff" opacity="1.000000" stroke="none" 
	d="
M304.407562,279.399231 
	C299.497498,284.375549 294.326965,288.706024 290.304779,293.922028 
	C285.038208,300.751740 278.478546,299.623505 271.531281,298.892700 
	C271.444672,296.184692 273.411804,295.167542 274.713806,293.817444 
	C280.008636,288.326813 285.454498,282.981537 290.734955,277.477356 
	C295.369720,272.646179 301.273041,271.416290 308.285522,274.113068 
	C308.172424,276.575226 305.882324,277.488953 304.407562,279.399231 
z"/>
</svg>