<svg version="1.1" id="Layer_1" xmlns="http://www.w3.org/2000/svg" xmlns:xlink="http://www.w3.org/1999/xlink" x="0px" y="0px" viewBox="0 0 368 368" enable-background="new 0 0 368 368" xml:space="preserve">
<path fill="#ffffff" opacity="1.000000" stroke="none" 
	d="
M299.064484,231.000000 
	C299.058563,266.331421 299.067932,301.162872 299.039612,335.994293 
	C299.027313,351.100159 291.798065,358.312195 276.637634,358.317230 
	C209.307968,358.339569 141.978302,358.342468 74.648636,358.333710 
	C60.590088,358.331879 52.961876,350.803833 52.958447,336.782959 
	C52.934563,239.121597 52.938900,141.460236 52.961994,43.798885 
	C52.965492,29.010830 60.346760,21.709295 75.139641,21.704802 
	C127.470123,21.688906 179.800980,21.779650 232.130707,21.577637 
	C240.061569,21.547022 246.206894,24.112228 251.677353,29.716438 
	C264.829102,43.189713 278.148407,56.503307 291.588287,69.689552 
	C296.822754,74.825264 299.113159,80.746796 299.100067,88.007988 
	C299.014313,135.505188 299.061035,183.002640 299.064484,231.000000 
M286.920715,227.500000 
	C286.931213,182.169678 286.879425,136.839127 287.044250,91.509377 
	C287.061554,86.746239 285.737091,85.032051 280.848053,85.239021 
	C272.530304,85.591156 264.186310,85.373306 255.853851,85.318352 
	C242.929825,85.233124 235.096069,77.416527 234.938354,64.386108 
	C234.839523,56.221088 234.908722,48.054031 234.903671,39.887890 
	C234.899612,33.339783 234.900375,33.323784 228.216492,33.323071 
	C177.719650,33.317673 127.222816,33.317924 76.725983,33.319294 
	C66.721924,33.319565 65.124123,34.881622 65.123047,44.882019 
	C65.112617,141.709259 65.112877,238.536499 65.117073,335.363739 
	C65.117493,345.034637 66.782410,346.682831 76.457703,346.682953 
	C142.953537,346.683807 209.449356,346.681976 275.945190,346.678192 
	C285.198303,346.677643 286.920044,344.929504 286.921295,335.493286 
	C286.926086,299.828857 286.921509,264.164429 286.920715,227.500000 
M247.119598,61.386444 
	C247.302643,65.905396 245.814438,71.794502 251.961258,73.029785 
	C260.176178,74.680679 268.630585,73.844284 276.790802,73.357262 
	C266.762299,63.400845 256.981995,53.690872 247.121216,43.900970 
	C247.121216,49.184082 247.121216,54.800255 247.119598,61.386444 
z"/>
<path fill="#ffffff" opacity="1.000000" stroke="none" 
	d="
M191.926132,246.135620 
	C165.690750,242.177963 142.246338,247.494598 121.703407,264.038208 
	C119.630928,265.707214 117.633682,267.473145 115.651512,269.249908 
	C112.756386,271.844940 109.645126,272.447906 106.847191,269.476227 
	C103.999969,266.452209 105.015862,263.414001 107.730270,260.706909 
	C114.024910,254.429153 121.219498,249.365662 128.934937,245.023148 
	C165.240021,224.589462 213.195190,230.760559 243.232513,259.705353 
	C243.592010,260.051758 243.980026,260.370850 244.319275,260.735657 
	C246.820831,263.425781 248.268234,266.365540 245.211517,269.476349 
	C242.359756,272.378540 239.211761,271.953674 236.361618,269.336914 
	C230.084976,263.574249 223.417801,258.402985 215.789780,254.487534 
	C208.335541,250.661270 200.554520,247.865784 191.926132,246.135620 
z"/>
<path fill="#ffffff" opacity="1.000000" stroke="none" 
	d="
M245.271332,162.581528 
	C248.064026,166.349777 246.622269,169.197495 243.972397,171.675858 
	C240.091858,175.305237 236.084595,178.799133 232.065887,182.409592 
	C235.840164,187.852127 240.091232,191.099335 243.648178,194.971909 
	C246.275482,197.832336 248.624893,200.721603 245.259140,204.478821 
	C242.700714,207.334808 238.858032,206.890778 235.202744,203.373276 
	C232.564270,200.834259 229.862198,198.323257 227.524567,195.519547 
	C224.764206,192.208832 222.572052,192.560501 219.923737,195.633698 
	C217.428558,198.529190 214.600571,201.142197 211.868500,203.828110 
	C209.018967,206.629547 205.651337,207.626022 202.559235,204.700958 
	C199.301620,201.619370 200.593536,198.395660 203.497894,195.621536 
	C207.448822,191.847748 211.389740,188.063461 216.925873,182.759476 
	C211.974899,178.595108 207.571533,175.058151 203.368515,171.297287 
	C200.582748,168.804565 199.399918,165.574646 202.321869,162.552338 
	C205.289932,159.482346 208.669830,160.168213 211.594147,162.971725 
	C214.477768,165.736252 217.348389,168.527802 220.036728,171.478745 
	C222.694504,174.396133 224.989136,174.154968 227.569305,171.395584 
	C230.296875,168.478607 233.169998,165.690613 236.081589,162.954895 
	C238.822433,160.379608 241.820755,159.650818 245.271332,162.581528 
z"/>
<path fill="#ffffff" opacity="1.000000" stroke="none" 
	d="
M138.789673,202.329086 
	C135.073639,198.995819 132.315399,195.153320 127.000725,191.702209 
	C123.496559,195.618469 119.867950,199.681854 116.229774,203.736633 
	C114.298546,205.888977 111.942612,206.944916 109.075050,206.075928 
	C104.924171,204.818054 103.789856,199.951157 107.151428,196.429428 
	C111.153885,192.236313 115.576752,188.444473 119.893188,184.407990 
	C116.303391,179.131027 112.040901,175.895844 108.461723,172.046173 
	C105.817467,169.202103 103.392380,166.369781 106.749931,162.577896 
	C109.321609,159.673553 112.994179,160.142776 116.707771,163.737518 
	C119.457756,166.399506 122.268227,169.018143 124.807320,171.873444 
	C127.319756,174.698761 129.315292,174.466461 131.729095,171.741867 
	C134.373535,168.756927 137.266815,165.982178 140.163528,163.233734 
	C143.487198,160.080154 147.505447,159.798386 149.813187,162.622223 
	C152.477692,165.882614 151.192001,168.678558 148.569748,171.396225 
	C144.787552,175.316025 140.437698,178.748871 137.438095,183.529190 
	C140.245453,187.768539 143.967224,190.871094 147.306229,194.301819 
	C150.214813,197.290283 153.243683,200.247498 149.751892,204.536774 
	C147.280762,207.572296 143.393295,206.736496 138.789673,202.329086 
z"/>
</svg>